<?xml version="1.0" encoding="UTF-8" standalone="no"?>
<svg
   xmlns:dc="http://purl.org/dc/elements/1.1/"
   xmlns:cc="http://creativecommons.org/ns#"
   xmlns:rdf="http://www.w3.org/1999/02/22-rdf-syntax-ns#"
   xmlns:svg="http://www.w3.org/2000/svg"
   xmlns="http://www.w3.org/2000/svg"
   xmlns:sodipodi="http://sodipodi.sourceforge.net/DTD/sodipodi-0.dtd"
   xmlns:inkscape="http://www.inkscape.org/namespaces/inkscape"
   viewBox="0 0 571.49665 92.763498"
   height="92.763496"
   width="571.49664"
   xml:space="preserve"
   version="1.1"
   id="svg2"
   inkscape:version="0.91 r13725"
   sodipodi:docname="logo.svg"><sodipodi:namedview
     pagecolor="#ffffff"
     bordercolor="#666666"
     borderopacity="1"
     objecttolerance="10"
     gridtolerance="10"
     guidetolerance="10"
     inkscape:pageopacity="0"
     inkscape:pageshadow="2"
     inkscape:window-width="1680"
     inkscape:window-height="1028"
     id="namedview56"
     showgrid="false"
     inkscape:zoom="2.1697415"
     inkscape:cx="342.78413"
     inkscape:cy="81.938067"
     inkscape:window-x="0"
     inkscape:window-y="0"
     inkscape:window-maximized="1"
     inkscape:current-layer="g10" /><metadata
     id="metadata8"><rdf:RDF><cc:Work
         rdf:about=""><dc:format>image/svg+xml</dc:format><dc:type
           rdf:resource="http://purl.org/dc/dcmitype/StillImage" /><dc:title /></cc:Work></rdf:RDF></metadata><defs
     id="defs6"><clipPath
       id="clipPath20"
       clipPathUnits="userSpaceOnUse"><path
         id="path22"
         d="m 0,203.346 597.346,0 L 597.346,0 0,0 0,203.346 Z" /></clipPath><clipPath
       id="clipPath104"
       clipPathUnits="userSpaceOnUse"><path
         id="path106"
         d="m 0,203.346 597.346,0 L 597.346,0 0,0 0,203.346 Z" /></clipPath></defs><g
     transform="matrix(1.25,0,0,-1.25,-87.59325,173.473)"
     id="g10"><g
       transform="translate(70.0746,132.5306)"
       id="g12"
       style="fill:#899849;fill-opacity:1"><path
         id="path14"
         style="fill:#899849;fill-opacity:1;fill-rule:nonzero;stroke:none"
         d="m 0,0 0,-4.105 14.919,0 0,-26.034 4.102,0 0,26.034 14.896,0 0,4.105 L 0,0 Z" /></g><g
       id="g16"><g
         clip-path="url(#clipPath20)"
         id="g18"><g
           transform="translate(136.6869,102.3924)"
           id="g24"
           style="fill:#899849;fill-opacity:1"><path
             id="path26"
             style="fill:#899849;fill-opacity:1;fill-rule:nonzero;stroke:none"
             d="m 0,0 -13.063,12.998 -11.242,0 0,-12.998 -4.111,0 0,30.139 15.879,0 c 4.948,0 8.706,-0.371 11.265,-1.111 4.513,-1.282 6.774,-3.774 6.774,-7.472 0,-5.109 -4.311,-7.913 -12.93,-8.407 L 5.762,0 0,0 Z m 1.398,21.556 c 0,2.986 -4.248,4.478 -12.735,4.478 l -12.968,0 0,-8.931 13.294,0 c 8.271,0 12.409,1.485 12.409,4.453" /></g><g
           transform="translate(180.1,102.3924)"
           id="g28"
           style="fill:#899849;fill-opacity:1"><path
             id="path30"
             style="fill:#899849;fill-opacity:1;fill-rule:nonzero;stroke:none"
             d="m 0,0 -3.25,5.528 -23.481,0 -3.248,-5.528 -4.68,0 17.388,30.139 4.564,0 L 4.72,0 0,0 Z m -15.002,25.881 -9.389,-16.246 18.802,0 -9.413,16.246 z" /></g><g
           transform="translate(221.9486,117.4422)"
           id="g32"
           style="fill:#899849;fill-opacity:1"><path
             id="path34"
             style="fill:#899849;fill-opacity:1;fill-rule:nonzero;stroke:none"
             d="m 0,0 c 0,-5.534 -1.826,-9.536 -5.481,-12.01 -3.073,-2.024 -7.523,-3.04 -13.349,-3.04 l -15.087,0 0,30.138 15.087,0 c 5.871,0 10.318,-1.032 13.349,-3.1 C -1.826,9.51 0,5.518 0,0 m -4.11,0 c 0,4.351 -1.444,7.371 -4.343,9.042 -2.214,1.296 -5.672,1.942 -10.377,1.942 l -10.983,0 0,-21.992 10.983,0 c 4.705,0 8.163,0.647 10.377,1.945 2.899,1.674 4.343,4.692 4.343,9.063" /></g><g
           transform="translate(227.1693,102.3924)"
           id="g36"><path
             id="path38"
             style="fill:#899849;fill-opacity:1;fill-rule:nonzero;stroke:none"
             d="m 0,0 0,30.139 30.198,0 0,-4.105 -26.094,0 0,-8.931 26.094,0 0,-4.105 -26.094,0 0,-8.956 26.094,0 L 30.198,0 0,0 Z" /></g><g
           transform="translate(310.679,110.909)"
           id="g40"><path
             id="path42"
             style="fill:#899849;fill-opacity:1;fill-rule:nonzero;stroke:none"
             d="m 0,0 c 0,-3.653 -2.233,-6.133 -6.708,-7.443 -2.576,-0.714 -6.298,-1.073 -11.177,-1.073 l -16.034,0 0,30.137 15.927,0 c 4.935,0 8.678,-0.369 11.242,-1.109 C -2.252,19.216 0,16.724 0,13.041 0,9.78 -1.742,7.611 -5.22,6.532 -1.742,5.439 0,3.264 0,0 m -4.103,13.041 c 0,2.985 -4.409,4.477 -13.215,4.477 l -12.494,0 0,-8.933 13.52,0 c 8.123,0 12.189,1.486 12.189,4.456 M -4.103,0 c 0,2.986 -4.423,4.48 -13.262,4.48 l -12.447,0 0,-8.954 13.52,0 c 8.123,0 12.189,1.492 12.189,4.474" /></g><g
           transform="translate(348.5951,102.3924)"
           id="g44"><path
             id="path46"
             style="fill:#899849;fill-opacity:1;fill-rule:nonzero;stroke:none"
             d="m 0,0 -3.257,5.528 -23.477,0 L -29.99,0 l -4.671,0 17.387,30.139 4.564,0 L 4.718,0 0,0 Z m -15.006,25.881 -9.391,-16.246 18.804,0 -9.413,16.246 z" /></g><g
           transform="translate(394.1751,110.909)"
           id="g48"><path
             id="path50"
             style="fill:#899849;fill-opacity:1;fill-rule:nonzero;stroke:none"
             d="m 0,0 c 0,-3.768 -2.375,-6.288 -7.121,-7.552 -2.565,-0.643 -6.468,-0.964 -11.707,-0.964 -4.748,0 -8.284,0.234 -10.613,0.7 -4.385,0.931 -7.033,2.853 -7.952,5.762 l 3.998,1.118 c 0.785,-1.661 3.194,-2.737 7.228,-3.233 0.875,-0.117 2.026,-0.206 3.449,-0.262 1.428,-0.057 3.168,-0.087 5.222,-0.087 8.926,0 13.388,1.508 13.388,4.518 0,2.145 -2.218,3.518 -6.662,4.129 -0.829,0.117 -1.994,0.206 -3.492,0.264 -1.502,0.059 -3.373,0.087 -5.615,0.087 -4.778,0 -8.474,0.387 -11.097,1.155 -4.453,1.311 -6.678,3.781 -6.678,7.406 0,3.786 2.368,6.31 7.118,7.578 2.488,0.671 6.393,1.002 11.706,1.002 4.774,0 8.345,-0.26 10.701,-0.785 4.43,-0.991 7.063,-2.975 7.907,-5.959 l -3.998,-1.006 c -0.727,1.718 -3.087,2.831 -7.072,3.338 -0.847,0.118 -1.996,0.207 -3.449,0.265 -1.458,0.056 -3.244,0.087 -5.356,0.087 -8.967,0 -13.457,-1.507 -13.457,-4.52 0,-2.109 2.169,-3.475 6.49,-4.083 0.844,-0.119 2.003,-0.208 3.471,-0.276 1.47,-0.063 3.282,-0.097 5.44,-0.097 5.01,0 8.787,-0.377 11.335,-1.133 C -2.272,6.155 0,3.669 0,0" /></g><g
           transform="translate(401.2484,102.3924)"
           id="g52"><path
             id="path54"
             style="fill:#899849;fill-opacity:1;fill-rule:nonzero;stroke:none"
             d="m 0,0 0,30.139 30.205,0 0,-4.105 -26.101,0 0,-8.931 26.101,0 0,-4.105 -26.101,0 0,-8.956 26.101,0 L 30.205,0 0,0 Z" /></g><g
           transform="translate(527.2719,121.2284)"
           id="g92" /></g></g><text
       id="text96"
       style="font-variant:normal;font-weight:500;font-stretch:normal;font-size:24px;font-family:'SF Grandezza';-inkscape-font-specification:SFGrandezza-Medium;writing-mode:lr-tb;fill:#58595a;fill-opacity:1;fill-rule:nonzero;stroke:none"
       transform="scale(1,-1)"
       x="266.98892"
       y="-80.680054"><tspan
         id="tspan98"
         x="328.78891"
         style="fill:#58595a;fill-opacity:1">CLOUD</tspan></text>
<path
       id="path4233"
       d="m 468.93043,120.02223 c -1.66751,1.31016 -3.75884,2.08671 -6.0324,2.08671 -5.35112,0 -9.70808,-4.31671 -9.84276,-9.69659 -5.52539,-2.09457 -9.45853,-7.48644 -9.45853,-13.802093 0,-7.462578 5.48578,-13.630931 12.60351,-14.602598 l 0,-0.135239 50.42184,0 0,0.02535 c 7.03055,0.413981 12.6035,6.307717 12.6035,13.519426 0,6.956834 -5.18481,12.687134 -11.85884,13.455674 0.0254,0.42225 0.0445,0.85217 0.0445,1.28228 0,10.77968 -8.99515,19.51653 -20.08957,19.51653 -8.21085,0 -15.27309,-4.78657 -18.39032,-11.64785"
       inkscape:connector-curvature="0"
       style="fill:#58595a;fill-opacity:1;stroke:#899849;stroke-width:5.45262337;stroke-miterlimit:4;stroke-dasharray:none;stroke-opacity:1" /></g></svg>
